<?xml version="1.0" encoding="UTF-8" standalone="no"?>
<!-- Created with Inkscape (http://www.inkscape.org/) -->

<svg
   width="300"
   height="300"
   viewBox="0 0 79.374999 79.375002"
   version="1.1"
   id="svg291"
   inkscape:version="1.3.2 (091e20e, 2023-11-25, custom)"
   sodipodi:docname="FaceHappy.svg"
   xmlns:inkscape="http://www.inkscape.org/namespaces/inkscape"
   xmlns:sodipodi="http://sodipodi.sourceforge.net/DTD/sodipodi-0.dtd"
   xmlns="http://www.w3.org/2000/svg"
   xmlns:svg="http://www.w3.org/2000/svg">
  <sodipodi:namedview
     id="namedview293"
     pagecolor="#ffffff"
     bordercolor="#666666"
     borderopacity="1.0"
     inkscape:pageshadow="2"
     inkscape:pageopacity="0.0"
     inkscape:pagecheckerboard="0"
     inkscape:document-units="px"
     showgrid="false"
     width="1920px"
     units="px"
     borderlayer="true"
     inkscape:showpageshadow="false"
     inkscape:deskcolor="#d1d1d1"
     inkscape:zoom="1.1247417"
     inkscape:cx="552.5713"
     inkscape:cy="345.41263"
     inkscape:window-width="2560"
     inkscape:window-height="1377"
     inkscape:window-x="-8"
     inkscape:window-y="-8"
     inkscape:window-maximized="1"
     inkscape:current-layer="layer1" />
  <defs
     id="defs288" />
  <g
     inkscape:label="Layer 1"
     inkscape:groupmode="layer"
     id="layer1">
    <g
       id="g1"
       transform="translate(0.12160628,0.8892706)">
      <path
         style="fill:#373737;fill-opacity:1;stroke:none;stroke-width:0.139329px;stroke-linecap:butt;stroke-linejoin:miter;stroke-opacity:1"
         d="m 25.623562,20.910705 c 2.231289,-1.17022 4.849511,-0.384887 7.171335,-1.214091 1.92393,0.122198 4.38147,-1.877265 5.80285,0.119608 1.39462,2.21127 -1.67242,3.522474 -3.37485,2.443057 -2.8418,-1.041588 -5.710852,0.569104 -8.581244,0.189439 -0.840572,0.313718 -2.564469,-1.990828 -1.018091,-1.538013 z"
         id="path6" />
      <path
         style="fill:#373737;fill-opacity:1;stroke:none;stroke-width:0.139329px;stroke-linecap:butt;stroke-linejoin:miter;stroke-opacity:1"
         d="m 43.524847,18.928151 c -1.30403,-0.359688 -2.02738,1.680321 -0.52391,1.930718 1.6049,0.443899 3.26327,-0.111804 4.88893,-0.164706 1.45281,-0.07141 2.9129,-0.515888 4.34961,-0.08816 1.92339,0.544455 1.59309,-2.067342 0.062,-2.254708 -1.39534,-0.420743 -2.8877,-0.195115 -4.32498,-0.193652 -1.45564,0.06911 -2.90404,0.315697 -4.30438,0.705856 z"
         id="path8" />
      <path
         style="fill:#fdd49a;fill-opacity:1;stroke:#b4794e;stroke-width:0.696647;stroke-linecap:round;stroke-linejoin:round;stroke-dasharray:none;stroke-opacity:1"
         d="m 39.651557,36.399124 c 2.02026,-2.438252 7.38442,-5.503483 6.72261,-0.522483"
         id="path10"
         sodipodi:nodetypes="cc" />
      <path
         style="fill:#000000;fill-opacity:1;stroke:none;stroke-width:0.146772px;stroke-linecap:butt;stroke-linejoin:miter;stroke-opacity:1"
         d="m 40.164017,39.142151 c -1.71484,0.73554 -3.53421,-1.097366 -4.69559,0.240831 -1.31062,1.458953 -5.822786,-0.71085 -5.627376,2.08862 -0.241608,1.095297 -0.901826,3.959547 -0.241556,3.077847 1.504042,-2.00841 5.622972,-2.29332 6.613152,-2.40348 2.01969,-0.657278 4.12216,-0.389342 6.21614,-0.488255 1.91502,-0.245846 3.71792,-0.764743 5.58355,0.19196 1.58905,0.03886 4.45726,2.409395 3.21944,-0.894414 -0.805,-2.33394 -3.09239,-1.886793 -4.9362,-2.357281 -2.02075,-0.01473 -3.98409,0.489301 -5.91949,0.268283 z"
         id="path12"
         sodipodi:nodetypes="cccsccccccc" />
      <path
         id="path13"
         style="fill:#000000;fill-opacity:1;stroke:none;stroke-width:0.145106px;stroke-linecap:butt;stroke-linejoin:miter;stroke-opacity:1"
         d="m 42.416347,43.806619 c -1.26501,-0.01 -2.53355,0.13681 -3.68675,0.56412 -0.40709,-0.36199 -0.56693,0.40101 -0.48978,0.65119 0.38303,1.37302 0.51275,2.77385 0.79543,4.16463 0.0698,0.63075 0.68275,2.83821 0.91091,3.4375 -2.46449,0.31098 -9.729139,-2.03357 -8.44552,-9.11552 0.23625,-1.30345 -0.48647,-2.887231 -1.561409,-0.40945 -0.581225,1.33973 -1.714653,6.12436 -0.911405,8.34998 1.13007,4.15138 5.717624,6.39288 10.799874,8.05147 4.57007,-0.79552 10.18092,-8.48149 10.82293,-16.5437 0.0758,-0.95238 -0.69028,-1.130095 -0.90881,-0.21805 -0.38842,4.45817 -5.10768,8.89998 -7.8005,9.35844 l 1.03446,-3.55099 c 0.2292,-0.90364 2.05512,-4.00259 0.69995,-4.68193 -0.41645,-0.0336 -0.83772,-0.0544 -1.25938,-0.0577 z"
         sodipodi:nodetypes="sccccssccsccccs" />
      <path
         style="fill:none;stroke:#000000;stroke-width:1.32292;stroke-linecap:round;stroke-linejoin:round;stroke-dasharray:none;stroke-opacity:1"
         d="m 28.200621,31.981873 c -0.721701,-3.128935 6.264336,-8.98029 9.921876,-1.190625"
         id="path9"
         sodipodi:nodetypes="cc" />
      <path
         style="fill:none;stroke:#000000;stroke-width:1.32292;stroke-linecap:round;stroke-linejoin:round;stroke-dasharray:none;stroke-opacity:1"
         d="m 43.811037,29.600623 c -0.41969,-3.128935 7.62456,-8.649562 9.65729,-0.859897"
         id="path16"
         sodipodi:nodetypes="cc" />
      <path
         style="fill:#ffffff;fill-opacity:1;stroke:none;stroke-width:0.264583px;stroke-linecap:butt;stroke-linejoin:miter;stroke-opacity:1"
         d="m 32.963117,42.895939 c 2.51355,-0.26459 13.75834,-1.190627 15.27969,-0.66146 1.52136,0.52917 -2.24896,5.55625 -6.54843,5.29167 -4.29948,-0.26459 -8.73126,-0.59532 -8.73126,-4.63021 z"
         id="path17" />
    </g>
  </g>
</svg>
