<?xml version="1.0" encoding="UTF-8" standalone="no"?>
<!-- Created with Inkscape (http://www.inkscape.org/) -->

<svg
   width="300"
   height="300"
   viewBox="0 0 79.374999 79.375002"
   version="1.1"
   id="svg291"
   inkscape:version="1.3.2 (091e20e, 2023-11-25, custom)"
   sodipodi:docname="Face.svg"
   xmlns:inkscape="http://www.inkscape.org/namespaces/inkscape"
   xmlns:sodipodi="http://sodipodi.sourceforge.net/DTD/sodipodi-0.dtd"
   xmlns="http://www.w3.org/2000/svg"
   xmlns:svg="http://www.w3.org/2000/svg">
  <sodipodi:namedview
     id="namedview293"
     pagecolor="#ffffff"
     bordercolor="#666666"
     borderopacity="1.0"
     inkscape:pageshadow="2"
     inkscape:pageopacity="0.0"
     inkscape:pagecheckerboard="0"
     inkscape:document-units="px"
     showgrid="false"
     width="1920px"
     units="px"
     borderlayer="true"
     inkscape:showpageshadow="false"
     inkscape:deskcolor="#d1d1d1"
     inkscape:zoom="1.1247417"
     inkscape:cx="552.5713"
     inkscape:cy="345.41263"
     inkscape:window-width="2560"
     inkscape:window-height="1377"
     inkscape:window-x="-8"
     inkscape:window-y="-8"
     inkscape:window-maximized="1"
     inkscape:current-layer="layer1" />
  <defs
     id="defs288" />
  <g
     inkscape:label="Layer 1"
     inkscape:groupmode="layer"
     id="layer1">
    <g
       id="g29"
       transform="translate(16.965076,-47.266602)">
      <path
         style="fill:#373737;fill-opacity:1;stroke:none;stroke-width:0.139329px;stroke-linecap:butt;stroke-linejoin:miter;stroke-opacity:1"
         d="m 8.111144,69.06658 c 2.231289,-1.17022 4.849511,-0.384887 7.171338,-1.214092 1.92393,0.122199 4.381463,-1.877265 5.802844,0.119608 1.394626,2.21127 -1.67242,3.522474 -3.374845,2.443058 -2.841804,-1.041588 -5.710854,0.569104 -8.5812462,0.189439 C 8.2886632,70.91831 6.5647663,68.613765 8.111144,69.06658 Z"
         id="path6" />
      <path
         id="path7"
         style="fill:#ffffff;stroke:none;stroke-width:1.39329;stroke-linecap:square;stroke-linejoin:round;stroke-dasharray:none;stroke-opacity:1;paint-order:markers stroke fill"
         d="m 37.955266,76.646934 c 0,3.896679 -3.091671,7.055558 -6.905434,7.055558 -3.813772,0 -6.905444,-3.158879 -6.905444,-7.055558 0,-3.896679 3.908019,-5.714421 7.721786,-5.714421 3.813766,4e-6 6.089092,1.817742 6.089092,5.714421 z"
         sodipodi:nodetypes="sssss" />
      <path
         style="fill:#373737;fill-opacity:1;stroke:none;stroke-width:0.139329px;stroke-linecap:butt;stroke-linejoin:miter;stroke-opacity:1"
         d="m 26.012429,67.084026 c -1.304028,-0.359688 -2.027382,1.680321 -0.523913,1.930718 1.604908,0.443899 3.263274,-0.111804 4.888929,-0.164706 1.452814,-0.07141 2.912901,-0.515888 4.349617,-0.08816 1.923392,0.544455 1.593084,-2.067342 0.06204,-2.254708 -1.395339,-0.420743 -2.887699,-0.195115 -4.324983,-0.193653 -1.455645,0.06911 -2.904039,0.315697 -4.30438,0.705857 z"
         id="path8" />
      <path
         style="fill:#fdd49a;fill-opacity:1;stroke:#b4794e;stroke-width:0.696647;stroke-linecap:round;stroke-linejoin:round;stroke-dasharray:none;stroke-opacity:1"
         d="m 22.139137,84.554999 c 2.020264,-2.438252 7.384419,-5.503483 6.722612,-0.522483"
         id="path10"
         sodipodi:nodetypes="cc" />
      <path
         style="fill:#000000;fill-opacity:1;stroke:none;stroke-width:0.139329px;stroke-linecap:butt;stroke-linejoin:miter;stroke-opacity:1"
         d="m 23.458831,88.376449 c -1.510254,0.820362 -3.230326,-0.919282 -4.215301,0.475311 -1.113853,1.52266 -5.272685,-0.418819 -4.970673,2.367378 -0.168102,1.106006 -0.633257,3.999685 -0.07872,3.086072 1.263181,-2.081096 4.957486,-2.571602 5.843712,-2.731127 1.788162,-0.757445 3.692506,-0.594968 5.572688,-0.798457 1.712491,-0.34129 3.311769,-0.949684 5.033988,-0.08746 1.43194,-0.04064 4.120217,2.183513 2.857287,-1.054269 -0.829688,-2.29077 -2.868249,-1.729812 -4.548924,-2.10752 -1.819397,0.08633 -3.563738,0.687895 -5.315608,0.563924 z"
         id="path12"
         sodipodi:nodetypes="cccsccccccc" />
      <path
         id="path13"
         style="fill:#000000;fill-opacity:1;stroke:none;stroke-width:0.139329px;stroke-linecap:butt;stroke-linejoin:miter;stroke-opacity:1"
         d="m 25.906284,91.962491 c -1.165778,-0.01 -2.342776,0.136812 -3.427703,0.564123 -0.356922,-0.361987 -0.543069,0.401006 -0.48466,0.651193 0.283352,1.373012 0.331737,2.773849 0.521668,4.164628 0.03229,0.63075 0.485192,2.838205 0.665082,3.437495 -2.287966,0.31098 -8.866492,-2.033571 -7.323061,-9.115519 0.284072,-1.303446 -0.301745,-2.887228 -1.418743,-0.409452 -0.603965,1.339737 -1.892149,6.124369 -1.264719,8.349985 0.830858,4.151376 4.946451,6.392876 9.54777,8.051466 4.253855,-0.79552 9.817511,-8.481483 10.819229,-16.543694 0.11833,-0.952382 -0.578966,-1.130097 -0.826802,-0.218048 -0.584724,4.458168 -5.161467,8.899979 -7.667436,9.358432 l 1.134225,-3.550982 c 0.257253,-0.903648 2.098195,-4.002596 0.88332,-4.681931 -0.382244,-0.0336 -0.769581,-0.05436 -1.15817,-0.0577 z"
         sodipodi:nodetypes="sccccssccsccccs" />
      <path
         id="path5"
         style="fill:#ffffff;stroke:none;stroke-width:1.39329;stroke-linecap:square;stroke-linejoin:round;stroke-dasharray:none;stroke-opacity:1;paint-order:markers stroke fill"
         d="m 23.238343,77.871451 c 0,3.896679 -3.091668,7.055559 -6.905435,7.055559 -3.813767,0 -6.9054383,-3.15888 -6.9054383,-7.055559 0,-3.896678 3.9080133,-5.714421 7.7217853,-5.714421 3.813767,5e-6 6.089088,1.817743 6.089088,5.714421 z"
         sodipodi:nodetypes="sssss" />
      <circle
         style="fill:#000000;fill-opacity:1;stroke:none;stroke-width:2.66847;stroke-linecap:round;stroke-linejoin:round;stroke-dasharray:none;stroke-dashoffset:0.8;stroke-opacity:1;paint-order:stroke fill markers"
         id="path9"
         cx="18.416615"
         cy="78.460434"
         r="2.9669375" />
      <circle
         style="fill:#000000;fill-opacity:1;stroke:none;stroke-width:2.75443;stroke-linecap:round;stroke-linejoin:round;stroke-dasharray:none;stroke-dashoffset:0.8;stroke-opacity:1;paint-order:stroke fill markers"
         id="circle9"
         cx="30.917507"
         cy="77.440063"
         r="3.0625098" />
    </g>
  </g>
</svg>
