<?xml version="1.0" encoding="UTF-8" standalone="no"?>
<!-- Created with Inkscape (http://www.inkscape.org/) -->

<svg
   width="1920"
   height="750"
   viewBox="0 0 1920 750"
   version="1.1"
   id="svg1"
   inkscape:version="1.3.2 (091e20e, 2023-11-25, custom)"
   sodipodi:docname="engineering.svg"
   inkscape:export-filename="engineering.png"
   inkscape:export-xdpi="96"
   inkscape:export-ydpi="96"
   xmlns:inkscape="http://www.inkscape.org/namespaces/inkscape"
   xmlns:sodipodi="http://sodipodi.sourceforge.net/DTD/sodipodi-0.dtd"
   xmlns="http://www.w3.org/2000/svg"
   xmlns:svg="http://www.w3.org/2000/svg">
  <sodipodi:namedview
     id="namedview1"
     pagecolor="#ffffff"
     bordercolor="#000000"
     borderopacity="0.25"
     inkscape:showpageshadow="2"
     inkscape:pageopacity="0.0"
     inkscape:pagecheckerboard="0"
     inkscape:deskcolor="#d1d1d1"
     inkscape:document-units="px"
     inkscape:zoom="0.25"
     inkscape:cx="1360"
     inkscape:cy="646"
     inkscape:window-width="2560"
     inkscape:window-height="1369"
     inkscape:window-x="-8"
     inkscape:window-y="-8"
     inkscape:window-maximized="1"
     inkscape:current-layer="layer1"
     showgrid="false"
     showguides="true">
    <sodipodi:guide
       position="1401.4856,310.17958"
       orientation="0,-1"
       id="guide43"
       inkscape:locked="false" />
  </sodipodi:namedview>
  <defs
     id="defs1">
    <filter
       inkscape:collect="always"
       style="color-interpolation-filters:sRGB"
       id="filter148"
       x="-0.1460771"
       y="-0.049370974"
       width="1.2921542"
       height="1.0987419">
      <feGaussianBlur
         inkscape:collect="always"
         stdDeviation="13.011309"
         id="feGaussianBlur148" />
    </filter>
  </defs>
  <g
     inkscape:label="Layer 1"
     inkscape:groupmode="layer"
     id="layer1">
    <rect
       style="fill:#636e77;fill-opacity:1;stroke:none;stroke-width:12;stroke-linecap:round;stroke-linejoin:round;stroke-dasharray:none;stroke-dashoffset:0;stroke-opacity:1;paint-order:markers stroke fill"
       id="rect108"
       width="2008.1832"
       height="376.18082"
       x="-46.669048"
       y="-82.024384"
       ry="5.4374223" />
    <ellipse
       style="fill:#29323a;fill-opacity:1;stroke:none;stroke-width:6;stroke-linecap:round;stroke-linejoin:round;stroke-dasharray:none;stroke-dashoffset:0;stroke-opacity:1;paint-order:markers stroke fill"
       id="path108"
       cx="1005.5059"
       cy="762.26117"
       rx="1675.843"
       ry="584.07019" />
    <rect
       style="fill:#505960;fill-opacity:1;stroke:none;stroke-width:20;stroke-linecap:round;stroke-linejoin:round;stroke-dasharray:none;stroke-dashoffset:0;stroke-opacity:1;paint-order:markers stroke fill"
       id="rect141"
       width="87"
       height="229"
       x="1493"
       y="-69"
       ry="36.5" />
    <g
       id="g137"
       transform="matrix(-1,0,0,1,1920.3991,0)">
      <rect
         style="fill:#2f3d48;fill-opacity:1;stroke:none;stroke-width:20;stroke-linecap:round;stroke-linejoin:round;stroke-dasharray:none;stroke-dashoffset:0;stroke-opacity:1;paint-order:markers stroke fill"
         id="rect134"
         width="400"
         height="402"
         x="-119"
         y="-61"
         ry="5.5" />
      <path
         style="fill:#1e1e1e;fill-opacity:1;stroke:none;stroke-width:20;stroke-linecap:round;stroke-linejoin:round;stroke-dasharray:none;stroke-dashoffset:0;stroke-opacity:1;paint-order:markers stroke fill"
         d="M 171.11984,-165.46298 470.93312,493.56054 271.52901,480.83262 -209.30361,-158.39191 Z"
         id="path134" />
      <path
         style="fill:#33383c;fill-opacity:1;stroke:none;stroke-width:20;stroke-linecap:round;stroke-linejoin:round;stroke-dasharray:none;stroke-dashoffset:0;stroke-opacity:1;paint-order:markers stroke fill"
         d="m 468.8118,492.85343 38.89087,-22.62742 -269.40768,-658.31641 -79.90307,27.57716 z"
         id="path135" />
      <path
         style="fill:#2f3d48;fill-opacity:1;stroke:none;stroke-width:20;stroke-linecap:round;stroke-linejoin:round;stroke-dasharray:none;stroke-dashoffset:0;stroke-opacity:1;paint-order:markers stroke fill"
         d="M 44.5,58.5 182,45 243,181 117,195 Z"
         id="path136"
         sodipodi:nodetypes="ccccc" />
      <path
         style="fill:#252e35;fill-opacity:1;stroke:none;stroke-width:20;stroke-linecap:round;stroke-linejoin:round;stroke-dasharray:none;stroke-dashoffset:0;stroke-opacity:1;paint-order:markers stroke fill"
         d="m 182.48454,44.837942 1.49582,4.297265 L 92.475474,57.639895 168.5,189 116.5,195.75 42,56.5 Z"
         id="path137"
         sodipodi:nodetypes="ccccccc" />
    </g>
    <g
       id="g134">
      <rect
         style="fill:#2f3d48;fill-opacity:1;stroke:none;stroke-width:20;stroke-linecap:round;stroke-linejoin:round;stroke-dasharray:none;stroke-dashoffset:0;stroke-opacity:1;paint-order:markers stroke fill"
         id="rect128"
         width="400"
         height="402"
         x="-119"
         y="-61"
         ry="5.5" />
      <path
         style="fill:#1e1e1e;fill-opacity:1;stroke:none;stroke-width:20;stroke-linecap:round;stroke-linejoin:round;stroke-dasharray:none;stroke-dashoffset:0;stroke-opacity:1;paint-order:markers stroke fill"
         d="M 171.11984,-165.46298 470.93312,493.56054 271.52901,480.83262 -209.30361,-158.39191 Z"
         id="path127" />
      <path
         style="fill:#33383c;fill-opacity:1;stroke:none;stroke-width:20;stroke-linecap:round;stroke-linejoin:round;stroke-dasharray:none;stroke-dashoffset:0;stroke-opacity:1;paint-order:markers stroke fill"
         d="m 468.8118,492.85343 38.89087,-22.62742 -269.40768,-658.31641 -79.90307,27.57716 z"
         id="path128" />
      <path
         style="fill:#2f3d48;fill-opacity:1;stroke:none;stroke-width:20;stroke-linecap:round;stroke-linejoin:round;stroke-dasharray:none;stroke-dashoffset:0;stroke-opacity:1;paint-order:markers stroke fill"
         d="M 44.5,58.5 182,45 243,181 117,195 Z"
         id="path129"
         sodipodi:nodetypes="ccccc" />
      <path
         style="fill:#252e35;fill-opacity:1;stroke:none;stroke-width:20;stroke-linecap:round;stroke-linejoin:round;stroke-dasharray:none;stroke-dashoffset:0;stroke-opacity:1;paint-order:markers stroke fill"
         d="m 182.48454,44.837942 1.49582,4.297265 L 92.475474,57.639895 168.5,189 116.5,195.75 42,56.5 Z"
         id="path130"
         sodipodi:nodetypes="ccccccc" />
    </g>
    <ellipse
       style="fill:#000000;fill-opacity:1;stroke:#5b5b5b;stroke-width:12;stroke-linecap:round;stroke-linejoin:round;stroke-dasharray:none;stroke-dashoffset:0;stroke-opacity:1;paint-order:markers stroke fill"
       id="path107"
       cx="996"
       cy="283"
       rx="421.59036"
       ry="59" />
    <path
       id="path110"
       style="fill:#c6c6c6;fill-opacity:1;stroke:none;stroke-width:12;stroke-linecap:round;stroke-linejoin:round;stroke-dasharray:none;stroke-dashoffset:0;stroke-opacity:1;paint-order:markers stroke fill"
       d="m 1108.0371,155.91715 -225.56835,2.28883 -69.96484,105.43423 a 195.25,49.034813 0 0 0 -2.1875,3.29686 l -0.32618,0.49137 0.20899,-0.002 A 195.25,49.034813 0 0 0 809,272.40171 a 195.25,49.034813 0 0 0 195.25,49.03548 195.25,49.034813 0 0 0 195.25,-49.03548 195.25,49.034813 0 0 0 -3.4355,-9.10111 l 0.086,-0.002 z" />
    <path
       id="rect109"
       style="fill:#b1b1b1;fill-opacity:1;stroke:none;stroke-width:12;stroke-linecap:round;stroke-linejoin:round;stroke-dasharray:none;stroke-dashoffset:0;stroke-opacity:1;paint-order:markers stroke fill"
       d="m 883,-444.3934 v 599.50586 a 113.25,30.75 0 0 0 -0.5,2.24414 113.25,30.75 0 0 0 113.25,30.75 113.25,30.75 0 0 0 113.1934,-30.5 H 1109 v -0.25 -601.75 z" />
    <path
       id="path112"
       style="fill:#5af1ff;fill-opacity:1;stroke:none;stroke-width:12;stroke-linecap:round;stroke-linejoin:round;stroke-dasharray:none;stroke-dashoffset:0;stroke-opacity:1;paint-order:markers stroke fill"
       d="m 889.33586,-453.58579 v 599.50586 a 106.88604,30.75 0 0 0 -0.4719,2.24414 106.88604,30.75 0 0 0 106.88604,30.75 106.88604,30.75 0 0 0 106.8326,-30.5 h 0.053 v -0.25 -601.75 z" />
    <path
       id="path148"
       style="fill:#5af1ff;fill-opacity:1;stroke:none;stroke-width:12;stroke-linecap:round;stroke-linejoin:round;stroke-dasharray:none;stroke-dashoffset:0;stroke-opacity:1;paint-order:markers stroke fill;filter:url(#filter148);opacity:1"
       d="m 889.33586,-453.58579 v 599.50586 a 106.88604,30.75 0 0 0 -0.4719,2.24414 106.88604,30.75 0 0 0 106.88604,30.75 106.88604,30.75 0 0 0 106.8326,-30.5 h 0.053 v -0.25 -601.75 z" />
    <path
       style="fill:#5a5a5a;fill-opacity:1;stroke:none;stroke-width:12;stroke-linecap:round;stroke-linejoin:round;stroke-dasharray:none;stroke-dashoffset:0;stroke-opacity:1;paint-order:markers stroke fill"
       d="m 845.69971,308.29856 67.88225,-133.64319 v -325.26911 h 22.62742 v 335.16861 l -44.54773,133.64318 z"
       id="path111" />
    <path
       style="fill:#5a5a5a;fill-opacity:1;stroke:none;stroke-width:12;stroke-linecap:round;stroke-linejoin:round;stroke-dasharray:none;stroke-dashoffset:0;stroke-opacity:1;paint-order:markers stroke fill"
       d="m 1156.8267,308.29856 -67.8823,-133.64319 v -325.26911 h -22.6274 v 335.16861 l 44.5478,133.64318 z"
       id="path113" />
    <rect
       style="fill:#bebebe;fill-opacity:1;stroke:none;stroke-width:20;stroke-linecap:round;stroke-linejoin:round;stroke-dasharray:none;stroke-dashoffset:0;stroke-opacity:1;paint-order:markers stroke fill"
       id="rect115"
       width="11"
       height="116.5"
       x="753.5"
       y="234"
       ry="5.5" />
    <rect
       style="fill:#bebebe;fill-opacity:1;stroke:none;stroke-width:20;stroke-linecap:round;stroke-linejoin:round;stroke-dasharray:none;stroke-dashoffset:0;stroke-opacity:1;paint-order:markers stroke fill"
       id="rect116"
       width="11"
       height="116.5"
       x="1084"
       y="241"
       ry="5.5" />
    <rect
       style="fill:#bebebe;fill-opacity:1;stroke:none;stroke-width:20;stroke-linecap:round;stroke-linejoin:round;stroke-dasharray:none;stroke-dashoffset:0;stroke-opacity:1;paint-order:markers stroke fill"
       id="rect117"
       width="11"
       height="116.5"
       x="1375.5"
       y="213.5"
       ry="5.5" />
    <rect
       style="fill:#bebebe;fill-opacity:1;stroke:none;stroke-width:20;stroke-linecap:round;stroke-linejoin:round;stroke-dasharray:none;stroke-dashoffset:0;stroke-opacity:1;paint-order:markers stroke fill"
       id="rect118"
       width="11"
       height="82.5"
       x="1194.5"
       y="134"
       ry="3.8948498" />
    <rect
       style="fill:#bebebe;fill-opacity:1;stroke:none;stroke-width:20;stroke-linecap:round;stroke-linejoin:round;stroke-dasharray:none;stroke-dashoffset:0;stroke-opacity:1;paint-order:markers stroke fill"
       id="rect119"
       width="11"
       height="82.5"
       x="806.29834"
       y="131.17157"
       ry="3.8948498" />
    <rect
       style="fill:#505960;fill-opacity:1;stroke:none;stroke-width:20;stroke-linecap:round;stroke-linejoin:round;stroke-dasharray:none;stroke-dashoffset:0;stroke-opacity:1;paint-order:markers stroke fill"
       id="rect139"
       width="87"
       height="229"
       x="669"
       y="-84"
       ry="36.5" />
    <rect
       style="fill:#505960;fill-opacity:1;stroke:none;stroke-width:20;stroke-linecap:round;stroke-linejoin:round;stroke-dasharray:none;stroke-dashoffset:0;stroke-opacity:1;paint-order:markers stroke fill"
       id="rect140"
       width="87"
       height="229"
       x="1235"
       y="-90"
       ry="36.5" />
    <path
       id="ellipse114"
       style="color:#000000;fill:#970000;stroke-linecap:round;stroke-linejoin:round;-inkscape-stroke:none;paint-order:markers stroke fill"
       d="M 883 117.20898 C 813.27206 119.91398 748.86052 125.0557 696.50391 132.38281 C 656.61223 137.96551 625.34468 144.50537 603.30078 151.95312 C 592.27883 155.67701 583.55793 159.55342 576.84961 164.25 C 570.14128 168.94658 564.41016 175.36297 564.41016 184.00586 C 564.41016 192.64875 570.14128 199.06514 576.84961 203.76172 C 583.55793 208.45829 592.27883 212.33276 603.30078 216.05664 C 625.34468 223.50439 656.61223 230.04427 696.50391 235.62695 C 776.28727 246.79234 883.81688 253.00586 996 253.00586 C 1108.1831 253.00586 1215.7128 246.79234 1295.4961 235.62695 C 1335.3878 230.04427 1366.6553 223.50439 1388.6992 216.05664 C 1399.7212 212.33276 1408.4421 208.45829 1415.1504 203.76172 C 1421.8587 199.06514 1427.5898 192.64875 1427.5898 184.00586 C 1427.5898 175.36297 1421.8587 168.94658 1415.1504 164.25 C 1408.4421 159.55342 1399.7212 155.67701 1388.6992 151.95312 C 1366.6553 144.50537 1335.3878 137.96551 1295.4961 132.38281 C 1243.1395 125.0557 1178.728 119.91398 1109 117.20898 L 1109 137.22852 C 1177.9423 139.92827 1241.4963 145.02052 1292.7227 152.18945 C 1331.8943 157.67139 1362.3682 164.16663 1382.2988 170.90039 C 1392.2641 174.26727 1399.589 177.76891 1403.6797 180.63281 C 1406.3184 182.48021 1407.1135 183.60064 1407.3926 184.00586 C 1407.1135 184.4105 1406.3184 185.52956 1403.6797 187.37695 C 1399.589 190.24087 1392.2641 193.7425 1382.2988 197.10938 C 1362.3682 203.84314 1331.8943 210.33838 1292.7227 215.82031 C 1214.3792 226.78418 1107.4419 233.00586 996 233.00586 C 884.55813 233.00586 777.62073 226.78418 699.27734 215.82031 C 660.10565 210.33838 629.63178 203.84314 609.70117 197.10938 C 599.73587 193.7425 592.41097 190.24087 588.32031 187.37695 C 585.6816 185.52956 584.88654 184.4105 584.60742 184.00586 C 584.88654 183.60064 585.6816 182.48021 588.32031 180.63281 C 592.41097 177.76891 599.73587 174.26727 609.70117 170.90039 C 629.63178 164.16663 660.10565 157.67139 699.27734 152.18945 C 750.50367 145.02052 814.05774 139.92827 883 137.22852 L 883 117.20898 z " />
    <path
       style="fill:#232323;fill-opacity:1;stroke:none;stroke-width:20;stroke-linecap:round;stroke-linejoin:round;stroke-dasharray:none;stroke-dashoffset:0;stroke-opacity:1;paint-order:markers stroke fill"
       d="M -16.970563,794.78802 377.59502,513.35952 379.00923,407.2935 -72.124892,555.78593 Z"
       id="path119" />
    <path
       style="fill:#3f454a;fill-opacity:1;stroke:none;stroke-width:20;stroke-linecap:round;stroke-linejoin:round;stroke-dasharray:none;stroke-dashoffset:0;stroke-opacity:1;paint-order:markers stroke fill"
       d="M -69,574 383,407 248,393 -194,502 Z"
       id="path120" />
    <path
       style="fill:#353a3d;fill-opacity:1;stroke:none;stroke-width:20;stroke-linecap:round;stroke-linejoin:round;stroke-dasharray:none;stroke-dashoffset:0;stroke-opacity:1;paint-order:markers stroke fill"
       d="M -190,503 248.5,393.5 195,235.5 -225.5,250 Z"
       id="path121" />
    <rect
       style="fill:#bebebe;fill-opacity:1;stroke:none;stroke-width:20;stroke-linecap:round;stroke-linejoin:round;stroke-dasharray:none;stroke-dashoffset:0;stroke-opacity:1;paint-order:markers stroke fill"
       id="rect114"
       width="11"
       height="116.5"
       x="586"
       y="202"
       ry="5.5" />
    <path
       style="fill:#1e1e1e;fill-opacity:1;stroke:none;stroke-width:20;stroke-linecap:round;stroke-linejoin:round;stroke-dasharray:none;stroke-dashoffset:0;stroke-opacity:1;paint-order:markers stroke fill"
       d="M -176.97872,482 233.18464,386.41776 187.64191,249 -210.18464,261.15701 Z"
       id="path122"
       sodipodi:nodetypes="ccccc" />
    <path
       style="fill:#232323;fill-opacity:1;stroke:none;stroke-width:20;stroke-linecap:round;stroke-linejoin:round;stroke-dasharray:none;stroke-dashoffset:0;stroke-opacity:1;paint-order:markers stroke fill"
       d="M 1912.4706,794.78802 1517.905,513.35952 1516.4908,407.2935 1967.6249,555.78593 Z"
       id="path123" />
    <path
       style="fill:#3f454a;fill-opacity:1;stroke:none;stroke-width:20;stroke-linecap:round;stroke-linejoin:round;stroke-dasharray:none;stroke-dashoffset:0;stroke-opacity:1;paint-order:markers stroke fill"
       d="m 1964.5,574 -452,-167 135,-14 442,109 z"
       id="path124" />
    <path
       style="fill:#353a3d;fill-opacity:1;stroke:none;stroke-width:20;stroke-linecap:round;stroke-linejoin:round;stroke-dasharray:none;stroke-dashoffset:0;stroke-opacity:1;paint-order:markers stroke fill"
       d="M 2085.5,503 1647,393.5 1700.5,235.5 2121,250 Z"
       id="path125" />
    <path
       style="fill:#1e1e1e;fill-opacity:1;stroke:none;stroke-width:20;stroke-linecap:round;stroke-linejoin:round;stroke-dasharray:none;stroke-dashoffset:0;stroke-opacity:1;paint-order:markers stroke fill"
       d="M 2072.4787,482 1662.3154,386.41776 1707.8581,249 l 397.8265,12.15701 z"
       id="path126"
       sodipodi:nodetypes="ccccc" />
    <path
       style="fill:#34424e;fill-opacity:1;stroke:none;stroke-width:20;stroke-linecap:round;stroke-linejoin:round;stroke-dasharray:none;stroke-dashoffset:0;stroke-opacity:1;paint-order:markers stroke fill"
       d="m 419,790 474,-413 201,-1 422,409 z"
       id="path138"
       sodipodi:nodetypes="ccccc" />
    <rect
       style="fill:#505960;fill-opacity:1;stroke:none;stroke-width:20;stroke-linecap:round;stroke-linejoin:round;stroke-dasharray:none;stroke-dashoffset:0;stroke-opacity:1;paint-order:markers stroke fill"
       id="rect138"
       width="87"
       height="229"
       x="435"
       y="-85"
       ry="36.5" />
    <path
       style="fill:none;fill-opacity:1;stroke:#974f00;stroke-width:6;stroke-linecap:round;stroke-linejoin:round;stroke-dasharray:none;stroke-dashoffset:0;stroke-opacity:1;paint-order:markers stroke fill"
       d="m 30,357 c 17.319116,-72.23585 54.968434,-12.55233 83.5,7.5 38.96177,27.38281 31.5,-59.5 53,-50.5"
       id="path141"
       sodipodi:nodetypes="csc" />
    <path
       style="fill:none;fill-opacity:1;stroke:#c1c1c1;stroke-width:6;stroke-linecap:round;stroke-linejoin:round;stroke-dasharray:none;stroke-dashoffset:0;stroke-opacity:1;paint-order:markers stroke fill"
       d="m 166.5,274.5 25,100 L 23,409 6,287 Z"
       id="path142"
       sodipodi:nodetypes="ccccc" />
    <path
       style="fill:none;fill-opacity:1;stroke:#ff9500;stroke-width:6;stroke-linecap:round;stroke-linejoin:round;stroke-dasharray:none;stroke-dashoffset:0;stroke-opacity:1;paint-order:markers stroke fill"
       d="m 61,297 14,87.5"
       id="path143" />
    <path
       style="fill:none;fill-opacity:1;stroke:#ff9500;stroke-width:6;stroke-linecap:round;stroke-linejoin:round;stroke-dasharray:none;stroke-dashoffset:0;stroke-opacity:1;paint-order:markers stroke fill"
       d="m 140.5,289.5 11,80.5"
       id="path144"
       sodipodi:nodetypes="cc" />
    <path
       style="fill:none;fill-opacity:1;stroke:#d6d6d6;stroke-width:12;stroke-linecap:round;stroke-linejoin:round;stroke-dasharray:48,24,24,24,24,24,24;stroke-dashoffset:0;stroke-opacity:1;paint-order:markers stroke fill"
       d="m 1728.8761,276.1252 215.6675,16.26345"
       id="path145" />
    <path
       style="fill:none;fill-opacity:1;stroke:#d6d6d6;stroke-width:12;stroke-linecap:round;stroke-linejoin:round;stroke-dasharray:24,24,12,24,24,48;stroke-dashoffset:0;stroke-opacity:1;paint-order:markers stroke fill"
       d="m 1719.6837,307.94501 215.3139,24.39518"
       id="path146"
       sodipodi:nodetypes="cc" />
    <path
       style="fill:none;fill-opacity:1;stroke:#ff0083;stroke-width:12;stroke-linecap:round;stroke-linejoin:round;stroke-dasharray:36, 24, 12, 24, 12, 24, 96, 24;stroke-dashoffset:0;stroke-opacity:1;paint-order:markers stroke fill"
       d="m 1706.6022,362.74579 215.3139,43.48706"
       id="path147"
       sodipodi:nodetypes="cc" />
  </g>
</svg>
