<?xml version="1.0" encoding="UTF-8" standalone="no"?>
<!-- Created with Inkscape (http://www.inkscape.org/) -->

<svg
   width="300"
   height="500"
   viewBox="0 0 79.375002 132.29167"
   version="1.1"
   id="svg291"
   inkscape:version="1.3.2 (091e20e, 2023-11-25, custom)"
   sodipodi:docname="Body.svg"
   xmlns:inkscape="http://www.inkscape.org/namespaces/inkscape"
   xmlns:sodipodi="http://sodipodi.sourceforge.net/DTD/sodipodi-0.dtd"
   xmlns:xlink="http://www.w3.org/1999/xlink"
   xmlns="http://www.w3.org/2000/svg"
   xmlns:svg="http://www.w3.org/2000/svg">
  <sodipodi:namedview
     id="namedview293"
     pagecolor="#ffffff"
     bordercolor="#666666"
     borderopacity="1.0"
     inkscape:pageshadow="2"
     inkscape:pageopacity="0.0"
     inkscape:pagecheckerboard="0"
     inkscape:document-units="px"
     showgrid="false"
     width="1920px"
     units="px"
     borderlayer="true"
     inkscape:showpageshadow="false"
     inkscape:deskcolor="#d1d1d1"
     inkscape:zoom="1"
     inkscape:cx="128.5"
     inkscape:cy="392.5"
     inkscape:window-width="2560"
     inkscape:window-height="1377"
     inkscape:window-x="-8"
     inkscape:window-y="-8"
     inkscape:window-maximized="1"
     inkscape:current-layer="g28" />
  <defs
     id="defs288">
    <linearGradient
       id="linearGradient5"
       inkscape:collect="always">
      <stop
         style="stop-color:#36a6ff;stop-opacity:1;"
         offset="0"
         id="stop5" />
      <stop
         style="stop-color:#73bcff;stop-opacity:1;"
         offset="0.51032108"
         id="stop6" />
      <stop
         style="stop-color:#1991ff;stop-opacity:1;"
         offset="1"
         id="stop7" />
    </linearGradient>
    <linearGradient
       inkscape:collect="always"
       xlink:href="#linearGradient5"
       id="linearGradient6"
       x1="-4.9222136"
       y1="117.21639"
       x2="24.57883"
       y2="117.21639"
       gradientUnits="userSpaceOnUse" />
  </defs>
  <g
     inkscape:label="Layer 1"
     inkscape:groupmode="layer"
     id="layer1"
     transform="translate(-24.557526,-14.322642)">
    <g
       id="g28"
       transform="translate(54.681303)">
      <path
         id="path1"
         style="fill:#000000;fill-opacity:1;stroke:#000000;stroke-width:5.2916668;stroke-linecap:butt;stroke-linejoin:miter;stroke-opacity:1;stroke-dasharray:none"
         d="M -10.877406 78.994665 C -12.329227 79.008204 -13.349355 79.186435 -13.572332 79.448384 C -14.295056 80.297428 -13.621566 89.846468 -11.74247 93.503857 A 23.734869 19.127468 0 0 0 -13.594553 100.81607 A 23.734869 19.127468 0 0 0 -4.5000174 115.81619 A 14.750522 6.0523438 0 0 0 -4.9222139 117.21662 A 14.750522 6.0523438 0 0 0 -4.9211803 117.22437 C -13.070684 122.16029 -18.855904 131.14927 -17.438763 143.69614 C -15.426733 161.50997 -5.6554293 173.64264 9.0433423 173.64264 C 23.742114 173.64264 31.467305 161.38549 33.408781 143.56385 C 34.594181 132.68255 31.055565 123.14452 24.504414 117.68274 A 14.750522 6.0523438 0 0 0 24.578829 117.21662 A 14.750522 6.0523438 0 0 0 24.31993 116.09421 A 23.734869 19.127468 0 0 0 33.875419 100.81607 A 23.734869 19.127468 0 0 0 30.851314 91.482792 C 32.127987 87.411774 32.41346 80.137948 31.787174 79.432881 C 31.0705 78.626056 22.126522 78.864438 17.479003 82.631136 A 23.734869 19.127468 0 0 0 10.140433 81.688558 A 23.734869 19.127468 0 0 0 2.0267162 82.892102 C -1.3768128 79.887403 -7.3790535 78.962041 -10.877406 78.994665 z " />
      <path
         style="fill:#eeeeee;fill-opacity:1;stroke:none;stroke-width:0.35362px;stroke-linecap:butt;stroke-linejoin:miter;stroke-opacity:1"
         d="m 29.796694,93.683922 c 2.149014,-2.524711 2.762887,-13.381544 1.990675,-14.250893 -0.77221,-0.869347 -11.099949,-0.528278 -15.308536,4.136035 -0.517011,5.196981 13.317861,10.114858 13.317861,10.114858 z"
         id="path31"
         sodipodi:nodetypes="cscc" />
      <path
         style="fill:#ed68bb;fill-opacity:1;stroke:none;stroke-width:0.273386px;stroke-linecap:butt;stroke-linejoin:miter;stroke-opacity:1"
         d="m 28.302346,92.691142 c 1.66142,-1.951874 2.863612,-10.543813 2.266611,-11.21591 -0.597001,-0.672099 -5.375305,1.431359 -7.581917,4.928068 1.67146,3.734153 5.315306,6.287842 5.315306,6.287842 z"
         id="path32"
         sodipodi:nodetypes="cscc" />
      <path
         id="ellipse18"
         style="fill:#eeeeee;stroke-width:2.07323;stroke-linecap:round;stroke-linejoin:round;stroke-dashoffset:0.8;paint-order:stroke fill markers"
         d="m 33.408879,143.56377 c -1.941478,17.82166 -9.66676,30.07864 -24.3655459,30.07864 -14.6987863,0 -24.4701801,-12.13251 -26.4822121,-29.94635 -2.248956,-19.91147 13.6355124,-30.87238 28.334295,-30.87238 14.698784,0 24.365544,13.73903 22.513463,30.74009 z"
         sodipodi:nodetypes="sssss" />
      <ellipse
         style="fill:url(#linearGradient6);fill-opacity:1;stroke:none;stroke-width:2.05961;stroke-linecap:round;stroke-linejoin:round;stroke-dasharray:none;stroke-dashoffset:0.8;stroke-opacity:1;paint-order:stroke fill markers"
         id="path33"
         cx="9.8283081"
         cy="117.21639"
         rx="14.750522"
         ry="6.0523438" />
      <ellipse
         style="fill:#eeeeee;fill-opacity:1;stroke:none;stroke-width:1.50292;stroke-linecap:round;stroke-linejoin:round;stroke-dasharray:none;stroke-dashoffset:0.8;stroke-opacity:1;paint-order:stroke fill markers"
         id="path18"
         cx="10.140414"
         cy="100.81612"
         rx="23.734869"
         ry="19.127468" />
      <path
         style="fill:#eeeeee;fill-opacity:1;stroke:none;stroke-width:0.371966px;stroke-linecap:butt;stroke-linejoin:miter;stroke-opacity:1"
         d="m -11.162731,94.391192 c -2.316012,-2.607432 -3.202433,-14.011377 -2.409626,-14.942754 0.792808,-0.931377 11.6615147,-0.8018 16.1909366,4.01005 0.6589986,5.453924 -13.7813106,10.932704 -13.7813106,10.932704 z"
         id="path29"
         sodipodi:nodetypes="cscc" />
      <path
         style="fill:#ed68bb;fill-opacity:1;stroke:none;stroke-width:0.28757px;stroke-linecap:butt;stroke-linejoin:miter;stroke-opacity:1"
         d="M -9.1125111,94.116607 C -10.903037,92.100783 -11.588335,83.284305 -10.97541,82.564253 c 0.612925,-0.720055 8.8683951,0.553364 11.2665407,4.181712 -1.6749492,3.964092 -9.4036418,7.370642 -9.4036418,7.370642 z"
         id="path30"
         sodipodi:nodetypes="cscc" />
      <circle
         style="fill:#e8b64f;fill-opacity:1;stroke:none;stroke-width:2.64583;stroke-linecap:round;stroke-linejoin:round;stroke-dasharray:none;stroke-dashoffset:0.8;stroke-opacity:1;paint-order:stroke fill markers"
         id="path34"
         cx="11.283516"
         cy="126.11299"
         r="3.3072917" />
    </g>
  </g>
</svg>
